<svg data-v-423bf9ae="" xmlns="http://www.w3.org/2000/svg" viewBox="0 0 156.4746543778802 60" class="font"><!----><!----><!----><g data-v-423bf9ae="" id="69e76ae1-43a0-4a33-9861-18201f0063a3" fill="white" transform="matrix(5.898617744445801,0,0,5.898617744445801,-3.9631364345550537,-28.018434524536133)"><path d="M0.67 6.01L0.67 6.01L0.67 6.01Q0.67 5.47 1.03 5.11L1.03 5.11L1.03 5.11Q1.39 4.75 1.97 4.75L1.97 4.75L1.97 4.75Q2.56 4.75 2.92 5.11L2.92 5.11L2.92 5.11Q3.28 5.47 3.28 6.01L3.28 6.01L3.28 6.01Q3.28 6.54 2.92 6.90L2.92 6.90L2.92 6.90Q2.56 7.27 1.97 7.27L1.97 7.27L1.97 7.27Q1.39 7.27 1.03 6.90L1.03 6.90L1.03 6.90Q0.67 6.54 0.67 6.01ZM3.16 8.99L3.16 14.69L3.16 14.69Q3.01 14.71 2.71 14.76L2.71 14.76L2.71 14.76Q2.41 14.81 2.10 14.81L2.10 14.81L2.10 14.81Q1.79 14.81 1.55 14.77L1.55 14.77L1.55 14.77Q1.30 14.73 1.13 14.60L1.13 14.60L1.13 14.60Q0.97 14.48 0.88 14.26L0.88 14.26L0.88 14.26Q0.78 14.04 0.78 13.69L0.78 13.69L0.78 7.99L0.78 7.99Q0.94 7.97 1.24 7.92L1.24 7.92L1.24 7.92Q1.54 7.87 1.85 7.87L1.85 7.87L1.85 7.87Q2.16 7.87 2.40 7.91L2.40 7.91L2.40 7.91Q2.65 7.95 2.81 8.08L2.81 8.08L2.81 8.08Q2.98 8.20 3.07 8.42L3.07 8.42L3.07 8.42Q3.16 8.64 3.16 8.99L3.16 8.99ZM4.38 11.30L4.38 11.30L4.38 11.30Q4.38 10.37 4.66 9.70L4.66 9.70L4.66 9.70Q4.94 9.02 5.44 8.57L5.44 8.57L5.44 8.57Q5.94 8.12 6.60 7.90L6.60 7.90L6.60 7.90Q7.27 7.69 8.04 7.69L8.04 7.69L8.04 7.69Q8.32 7.69 8.58 7.74L8.58 7.74L8.58 7.74Q8.85 7.78 9.02 7.85L9.02 7.85L9.02 5.59L9.02 5.59Q9.16 5.54 9.46 5.50L9.46 5.50L9.46 5.50Q9.77 5.45 10.09 5.45L10.09 5.45L10.09 5.45Q10.40 5.45 10.65 5.49L10.65 5.49L10.65 5.49Q10.89 5.53 11.06 5.66L11.06 5.66L11.06 5.66Q11.23 5.78 11.31 6.00L11.31 6.00L11.31 6.00Q11.40 6.22 11.40 6.57L11.40 6.57L11.40 13.20L11.40 13.20Q11.40 13.86 10.78 14.25L10.78 14.25L10.78 14.25Q10.37 14.52 9.73 14.72L9.73 14.72L9.73 14.72Q9.09 14.92 8.25 14.92L8.25 14.92L8.25 14.92Q7.34 14.92 6.62 14.67L6.62 14.67L6.62 14.67Q5.89 14.42 5.40 13.94L5.40 13.94L5.40 13.94Q4.90 13.47 4.64 12.80L4.64 12.80L4.64 12.80Q4.38 12.14 4.38 11.30ZM8.36 9.55L8.36 9.55L8.36 9.55Q7.60 9.55 7.20 9.98L7.20 9.98L7.20 9.98Q6.79 10.42 6.79 11.30L6.79 11.30L6.79 11.30Q6.79 12.17 7.17 12.61L7.17 12.61L7.17 12.61Q7.55 13.05 8.26 13.05L8.26 13.05L8.26 13.05Q8.51 13.05 8.71 12.97L8.71 12.97L8.71 12.97Q8.92 12.89 9.03 12.80L9.03 12.80L9.03 9.72L9.03 9.72Q8.75 9.55 8.36 9.55ZM17.19 13.69L17.19 10.39L17.19 10.39Q17.19 9.95 16.95 9.75L16.95 9.75L16.95 9.75Q16.70 9.55 16.28 9.55L16.28 9.55L16.28 9.55Q16.00 9.55 15.73 9.62L15.73 9.62L15.73 9.62Q15.46 9.69 15.26 9.83L15.26 9.83L15.26 14.69L15.26 14.69Q15.12 14.73 14.82 14.77L14.82 14.77L14.82 14.77Q14.52 14.81 14.20 14.81L14.20 14.81L14.20 14.81Q13.89 14.81 13.64 14.77L13.64 14.77L13.64 14.77Q13.40 14.73 13.23 14.60L13.23 14.60L13.23 14.60Q13.06 14.48 12.97 14.26L12.97 14.26L12.97 14.26Q12.88 14.04 12.88 13.69L12.88 13.69L12.88 9.49L12.88 9.49Q12.88 9.11 13.04 8.88L13.04 8.88L13.04 8.88Q13.20 8.64 13.48 8.44L13.48 8.44L13.48 8.44Q13.96 8.11 14.68 7.90L14.68 7.90L14.68 7.90Q15.40 7.69 16.28 7.69L16.28 7.69L16.28 7.69Q17.86 7.69 18.72 8.38L18.72 8.38L18.72 8.38Q19.57 9.07 19.57 10.30L19.57 10.30L19.57 14.69L19.57 14.69Q19.43 14.73 19.13 14.77L19.13 14.77L19.13 14.77Q18.83 14.81 18.51 14.81L18.51 14.81L18.51 14.81Q18.20 14.81 17.96 14.77L17.96 14.77L17.96 14.77Q17.71 14.73 17.54 14.60L17.54 14.60L17.54 14.60Q17.37 14.48 17.28 14.26L17.28 14.26L17.28 14.26Q17.19 14.04 17.19 13.69L17.19 13.69ZM23.95 13.19L23.95 13.19L23.95 13.19Q24.19 13.19 24.48 13.14L24.48 13.14L24.48 13.14Q24.77 13.09 24.91 13.01L24.91 13.01L24.91 11.89L23.90 11.97L23.90 11.97Q23.51 12.00 23.25 12.14L23.25 12.14L23.25 12.14Q23.00 12.28 23.00 12.56L23.00 12.56L23.00 12.56Q23.00 12.84 23.22 13.01L23.22 13.01L23.22 13.01Q23.44 13.19 23.95 13.19ZM23.84 7.69L23.84 7.69L23.84 7.69Q24.60 7.69 25.22 7.84L25.22 7.84L25.22 7.84Q25.84 7.99 26.29 8.31L26.29 8.31L26.29 8.31Q26.73 8.62 26.96 9.11L26.96 9.11L26.96 9.11Q27.20 9.59 27.20 10.25L27.20 10.25L27.20 13.38L27.20 13.38Q27.20 13.75 27.00 13.98L27.00 13.98L27.00 13.98Q26.80 14.21 26.52 14.38L26.52 14.38L26.52 14.38Q25.61 14.92 23.95 14.92L23.95 14.92L23.95 14.92Q23.21 14.92 22.62 14.78L22.62 14.78L22.62 14.78Q22.02 14.64 21.59 14.36L21.59 14.36L21.59 14.36Q21.17 14.08 20.94 13.65L20.94 13.65L20.94 13.65Q20.71 13.22 20.71 12.64L20.71 12.64L20.71 12.64Q20.71 11.68 21.28 11.16L21.28 11.16L21.28 11.16Q21.85 10.64 23.06 10.51L23.06 10.51L24.89 10.32L24.89 10.22L24.89 10.22Q24.89 9.81 24.54 9.64L24.54 9.64L24.54 9.64Q24.18 9.46 23.51 9.46L23.51 9.46L23.51 9.46Q22.97 9.46 22.47 9.58L22.47 9.58L22.47 9.58Q21.97 9.69 21.56 9.86L21.56 9.86L21.56 9.86Q21.38 9.73 21.25 9.47L21.25 9.47L21.25 9.47Q21.13 9.21 21.13 8.93L21.13 8.93L21.13 8.93Q21.13 8.57 21.30 8.35L21.30 8.35L21.30 8.35Q21.48 8.13 21.84 7.98L21.84 7.98L21.84 7.98Q22.25 7.83 22.80 7.76L22.80 7.76L22.80 7.76Q23.35 7.69 23.84 7.69Z"></path></g><!----><!----></svg>